<svg xmlns="http://www.w3.org/2000/svg" xmlns:xlink="http://www.w3.org/1999/xlink" version="1.1" fill="#fff" x="0px" y="0px" viewBox="0 0 64 80" style="enable-background:new 0 0 64 64;" xml:space="preserve"><g><path d="M32,60C16.5,60,4,47.5,4,32S16.5,4,32,4s28,12.5,28,28C60,47.5,47.5,60,32,60z M32,10c-12.2,0-22,9.8-22,22s9.8,22,22,22   s22-9.8,22-22C54,19.9,44.1,10,32,10z"/><path d="M42,29h-7v-7c0-1.7-1.3-3-3-3c-1.7,0-3,1.3-3,3v7h-7c-1.7,0-3,1.3-3,3c0,1.7,1.3,3,3,3h7v7c0,1.7,1.3,3,3,3   c1.7,0,3-1.3,3-3v-7h7c1.7,0,3-1.3,3-3C45,30.3,43.7,29,42,29z"/></g></svg>