<svg xmlns="http://www.w3.org/2000/svg" xmlns:xlink="http://www.w3.org/1999/xlink" version="1.1" fill="#fff" x="0px" y="0px" viewBox="0 0 32 40" enable-background="new 0 0 32 32" xml:space="preserve"><g><g><g><path d="M16,2c7.72,0,14,6.28,14,14s-6.28,14-14,14S2,23.72,2,16S8.28,2,16,2 M16,0C7.16,0,0,7.16,0,16s7.16,16,16,16     s16-7.16,16-16S24.84,0,16,0L16,0z"/></g></g></g><g display="none"><polyline display="inline" fill="none" stroke="#000000" stroke-width="2" stroke-miterlimit="10" points="11.9,8.31 21.61,16    11.9,23.69  "/></g><g><g><polygon points="12.52,24.47 11.28,22.91 20,16 11.28,9.09 12.52,7.53 23.22,16   "/></g></g></svg>