<svg xmlns="http://www.w3.org/2000/svg" xmlns:xlink="http://www.w3.org/1999/xlink" fill="#fff" version="1.1" x="0px" y="0px" viewBox="0 0 512 640" style="enable-background:new 0 0 512 512;" xml:space="preserve"><g><path d="M446.2,98.9c-6.5-6.8-17.2-7.1-24-0.6c-6.8,6.5-7.1,17.4-0.6,24.1l13.8,14.6h-70.1   c-15.2,0-30.1,6.1-40.7,17L147.7,334.3c-4.3,4.4-10.3,6.7-16.4,6.7H37c-9.4,0-17,7.6-17,17s7.6,17,17,17h94.4   c15.2,0,30.1-6.1,40.7-17l176.8-180.3c4.3-4.4,10.3-6.7,16.4-6.7h70.1l-13.8,14.3c-6.5,6.8-6.2,17.5,0.6,24   c3.3,3.1,7.5,4.7,11.7,4.7c4.5,0,9-1.8,12.3-5.3l41.2-43.2c6.3-6.6,6.3-16.9,0-23.5L446.2,98.9z"/><path d="M37,171h94.6c6.1,0,11.9,2.3,16.2,6.6l58.7,58.5c3.3,3.3,7.7,4.9,12,4.9c4.4,0,8.7-1.7,12-5   c6.6-6.6,6.6-17.4,0-24l-58.7-58.4c-10.8-10.7-25.1-16.5-40.3-16.5H37c-9.4,0-17,7.6-17,17S27.6,171,37,171z"/><path d="M446.2,303.3c-6.5-6.8-17.2-7.1-24-0.6c-6.8,6.5-7.1,17.1-0.6,23.9l13.8,14.3H365   c-6.1,0-11.9-2.3-16.2-6.6L289,274.9c-6.6-6.6-17.4-6.6-24,0.1c-6.6,6.6-6.6,17.4,0,24.1l59.7,59.5c10.8,10.7,25.1,16.5,40.3,16.5   h70.4l-13.8,14.6c-6.5,6.8-6.2,17.6,0.6,24.1c3.3,3.1,7.5,4.7,11.7,4.7c4.5,0,9-1.8,12.3-5.3l41.2-43.2c6.3-6.6,6.3-16.9,0-23.5   L446.2,303.3z"/></g></svg>